# xmcd CD database file
#
# Track frame offsets:
#	150
#	24329
#	79609
#	103222
#	135293
#	169143
#
# Disc length: 2745 seconds
#
# Revision: 0
# Processed by: cddbd v1.5.2PL0 Copyright (c) Steve Scherf et al.
# Submitted via: CDex 1.70beta2
#
DISCID=3e0ab706
DTITLE=Carlos Garnett - Cosmos Nucleus
DYEAR=1976
DGENRE=Jazz
TTITLE0=Saxy
TTITLE1=Cosmos Nucleus
TTITLE2=Wise Old Men
TTITLE3=Mystery of Ages
TTITLE4=Kafira
TTITLE5=Bed-Stuy Blues
EXTD=YEAR: 1976
EXTT0=
EXTT1=
EXTT2=
EXTT3=
EXTT4=
EXTT5=
PLAYORDER=
